{"title":"Ashley 2013 WEBRip 480p x264 AAC - VYTO [P2PDL]","uid":8825813,"size":371481729,"categoryP":"video","categoryS":"movies","magnet":"?xt=urn:btih:40dd9a5a007cd468907cafca2d296f3c5b034dc6&amp;dn=Ashley+2013+WEBRip+480p+x264+AAC+-+VYTO+%5BP2PDL%5D&amp;tr=udp%3A%2F%2Ftracker.openbittorrent.com%3A80&amp;tr=udp%3A%2F%2Fopen.demonii.com%3A1337&amp;tr=udp%3A%2F%2Ftracker.coppersurfer.tk%3A6969&amp;tr=udp%3A%2F%2Fexodus.desync.com%3A6969","seeders":0,"leechers":0,"uploader":"ValidusVyto","files":-1,"time":1376845516,"description":"_______ Visit us at our Semi Public Bittorrent Community ________\n  &lt;a href=&quot;\nhttp://p2pdl.com&quot; rel=&quot;nofollow&quot; target=&quot;_NEW&quot;&gt;\nhttp://p2pdl.com&lt;/a&gt;  _____________________________ &lt;a href=&quot; http://p2pdl.com&quot; rel=&quot;nofollow&quot; target=&quot;_NEW&quot;&gt; http://p2pdl.com&lt;/a&gt;\n\n                         \nAshley 2013 WEBRip 480p x264 AAC - VYTO\n\n\nGenre: Drama\nPlot: A teenage girl, distraught from her vain attempt to connect with her estranged\nmother, resorts to cutting herself. When she develops an online relationship with an\nolder woman, she learns ...   \nDirector: Dean Matthew Ronalds\nStars: Michael Madsen, Jennifer Taylor, Lauren C. Mayhew.\nRated: N/a\n\n\nIMDb: &lt;a href=&quot;\nhttp://www.imdb.com/title/tt2084093/&quot; rel=&quot;nofollow&quot; target=&quot;_NEW&quot;&gt;\nhttp://www.imdb.com/title/tt2084093/&lt;/a&gt;\n\n\nFormat                         : MPEG-4\nFile size                      : 351 MiB\nDuration                       : 1h 30mn\nOverall bit rate               : 541 Kbps\n\nVideo\nFormat                         : AVC\nBit rate                       : 498 Kbps\nWidth                          : 720 pixels\nHeight                         : 400 pixels\nDisplay aspect ratio           : 16:9\nFrame rate mode                : Constant\nFrame rate                     : 23.976 fps\nBit depth                      : 10 bits\nStream size                    : 323 MiB (92%)\nWriting library                : x264 core 133 r2334\nAudio\nFormat                         : AAC\nBit rate mode                  : Variable\nBit rate                       : 40.0 Kbps\nChannel(s)                     : 2 channels\nChannel positions              : Front: L R\nSampling rate                  : 48.0 KHz\nStream size                    : 26.0 MiB (7%)\nLanguage                       : English\n\nSubtitle\t\t       : Yes (English)\n\nSource                         : 1080p.WEB-DL.H264-PublicHD\n &lt;a href=&quot;\nhttp://ultraimg.com/images/fA47K.png&quot; rel=&quot;nofollow&quot; target=&quot;_NEW&quot;&gt;\nhttp://ultraimg.com/images/fA47K.png&lt;/a&gt; &lt;a href=&quot;\nhttp://ultraimg.com/images/qm3iZ.png&quot; rel=&quot;nofollow&quot; target=&quot;_NEW&quot;&gt;\nhttp://ultraimg.com/images/qm3iZ.png&lt;/a&gt; &lt;a href=&quot;\nhttp://ultraimg.com/images/s98hQ.png&quot; rel=&quot;nofollow&quot; target=&quot;_NEW&quot;&gt;\nhttp://ultraimg.com/images/s98hQ.png&lt;/a&gt; &lt;a href=&quot;\nhttp://ultraimg.com/images/BCwfg.png&quot; rel=&quot;nofollow&quot; target=&quot;_NEW&quot;&gt;\nhttp://ultraimg.com/images/BCwfg.png&lt;/a&gt; &lt;a href=&quot;\nhttp://ultraimg.com/images/XSaUI.png&quot; rel=&quot;nofollow&quot; target=&quot;_NEW&quot;&gt;\nhttp://ultraimg.com/images/XSaUI.png&lt;/a&gt; &lt;a href=&quot;\nhttp://ultraimg.com/images/qVHP.png&quot; rel=&quot;nofollow&quot; target=&quot;_NEW&quot;&gt;\nhttp://ultraimg.com/images/qVHP.png&lt;/a&gt; &lt;a href=&quot;\nhttp://ultraimg.com/images/0wloy.png&quot; rel=&quot;nofollow&quot; target=&quot;_NEW&quot;&gt;\nhttp://ultraimg.com/images/0wloy.png&lt;/a&gt; &lt;a href=&quot;\nhttp://ultraimg.com/images/VgMD.png&quot; rel=&quot;nofollow&quot; target=&quot;_NEW&quot;&gt;\nhttp://ultraimg.com/images/VgMD.png&lt;/a&gt;\n\n\n----------------------------------------------------------------------------------------------------\n\n\nEncoded using revolutionary 10bit encoding, which enables us to provide you more crispier \nand sharper images at small sizes, just make sure you follow our instructions without a fault.\nRecommend to you to use latest version of VLC player. Install K-Lite Codec Pack or shark007 codecs\nin case of any kind of problem in playback (For non-VLC Media Player users). Alternatively, install\nCore AVC codecs, the fastest decoder that there is coupled with Community Center Codec Pack and play\non Windows Media Player Classic. Check sample to be sure.\nEnjoy!\n\nEncoder Notes:Looking For Early Access To Anything You Can Provide DVDScr, R5, DVDR, BluRay, Direct\nAudio, Music Releases and Seedboxes. We require dedicated servers, so as to do more \nand fast releases of movies.\nIf You Got anything to offer please contact us at &quot;&lt;a class=&quot;__cf_email__&quot; href=&quot;/cdn-cgi/l/email-protection&quot; data-cfemail=&quot;25555742654d50564d0b464a48&quot;&gt;[email&amp;#160;protected]&lt;/a&gt;&lt;script cf-hash='f9e31' type=&quot;text/javascript&quot;&gt;\n/* &lt;![CDATA[ */!function(){try{var t=&quot;currentScript&quot;in document?document.currentScript:function(){for(var t=document.getElementsByTagName(&quot;script&quot;),e=t.length;e--;)if(t[e].getAttribute(&quot;cf-hash&quot;))return t[e]}();if(t&amp;&amp;t.previousSibling){var e,r,n,i,c=t.previousSibling,a=c.getAttribute(&quot;data-cfemail&quot;);if(a){for(e=&quot;&quot;,r=parseInt(a.substr(0,2),16),n=2;a.length-n;n+=2)i=parseInt(a.substr(n,2),16)^r,e+=String.fromCharCode(i);e=document.createTextNode(e),c.parentNode.replaceChild(e,c)}}}catch(u){}}();/* ]]&gt; */&lt;/script&gt;&quot;.\n\nFace book Fan Page:  \nSearch P2PDL on FB and hit like!!!\n\nFor more of our team uploads visit @       &lt;a href=&quot;\nhttp://thepiratebay.se/user/vitamin_x&quot; rel=&quot;nofollow&quot; target=&quot;_NEW&quot;&gt;\nhttp://thepiratebay.se/user/vitamin_x&lt;/a&gt;\t\n","torrent":{"xt":"urn:btih:40dd9a5a007cd468907cafca2d296f3c5b034dc6","amp;dn":"Ashley+2013+WEBRip+480p+x264+AAC+-+VYTO+%5BP2PDL%5D","amp;tr":["udp%3A%2F%2Ftracker.openbittorrent.com%3A80","udp%3A%2F%2Fopen.demonii.com%3A1337","udp%3A%2F%2Ftracker.coppersurfer.tk%3A6969","udp%3A%2F%2Fexodus.desync.com%3A6969"],"infoHash":"40dd9a5a007cd468907cafca2d296f3c5b034dc6","infoHashBuffer":{"type":"Buffer","data":[64,221,154,90,0,124,212,104,144,124,175,202,45,41,111,60,91,3,77,198]},"announce":[],"urlList":[]}}